{"glyphs":{"S":{"x_min":96,"x_max":914,"ha":909,"o":"m 96 320 l 223 333 l 223 298 q 248 193 223 240 q 334 119 274 145 q 476 93 394 93 q 654 145 593 93 q 716 264 716 197 q 683 350 716 311 q 502 453 650 387 q 345 531 387 503 q 248 626 279 575 q 217 745 217 678 q 258 883 217 821 q 378 977 299 944 q 557 1010 458 1010 q 758 968 676 1010 q 877 858 840 927 q 914 726 914 789 q 914 706 914 720 l 788 706 q 780 767 788 743 q 739 836 767 808 q 662 882 711 865 q 553 900 613 900 q 388 851 447 900 q 343 752 343 813 q 361 686 343 715 q 428 630 380 657 q 592 552 463 610 q 737 477 697 504 q 819 390 790 441 q 848 274 848 339 q 799 125 848 193 q 666 20 751 57 q 471 -17 581 -17 q 200 56 305 -17 q 96 320 96 129 "},"Ⱬ":{"x_min":33.234375,"x_max":866.640625,"ha":831,"o":"m 866 993 l 855 889 l 210 108 q 267 113 245 113 l 781 113 l 700 -275 l 586 -275 l 643 0 l 33 0 l 45 99 l 693 888 q 607 880 639 880 l 171 880 l 194 993 l 866 993 "},"/":{"x_min":-69.125,"x_max":558.9375,"ha":378,"o":"m -69 -16 l 454 1011 l 558 1011 l 35 -16 l -69 -16 "},"ⱡ":{"x_min":32.5625,"x_max":359.546875,"ha":302,"o":"m 359 993 l 283 631 l 356 631 l 338 542 l 265 542 l 246 452 l 319 452 l 301 363 l 227 363 l 152 0 l 32 0 l 108 363 l 35 363 l 53 452 l 126 452 l 145 542 l 72 542 l 91 631 l 164 631 l 239 993 l 359 993 "},"K":{"x_min":60.484375,"x_max":1008.875,"ha":908,"o":"m 60 0 l 263 994 l 394 994 l 296 515 l 825 994 l 1008 994 l 556 589 l 887 0 l 742 0 l 461 503 l 257 322 l 190 0 l 60 0 "},"7":{"x_min":164.828125,"x_max":810.15625,"ha":757,"o":"m 197 0 q 265 240 213 99 q 427 578 326 410 q 650 867 527 746 l 164 867 l 188 980 l 810 980 l 787 867 q 511 501 629 725 q 323 0 373 243 l 197 0 "},"d":{"x_min":72,"x_max":814.59375,"ha":757,"o":"m 521 104 q 306 -16 418 -16 q 138 59 205 -16 q 72 278 72 135 q 124 518 72 410 q 257 681 177 627 q 416 736 336 736 q 615 606 548 736 l 694 994 l 814 994 l 611 0 l 500 0 l 521 104 m 192 301 q 206 182 192 226 q 256 110 221 139 q 340 82 291 82 q 488 168 422 82 q 578 453 578 283 q 534 586 578 538 q 423 635 490 635 q 345 615 380 635 q 274 548 309 595 q 215 428 239 501 q 192 301 192 356 "},",":{"x_min":32.5625,"x_max":239.265625,"ha":378,"o":"m 73 0 l 102 139 l 239 139 l 214 17 q 144 -142 192 -91 q 32 -200 97 -193 l 43 -147 q 148 0 122 -124 l 73 0 "},"Y":{"x_min":158.84375,"x_max":1052.078125,"ha":908,"o":"m 380 0 l 458 384 l 158 994 l 298 994 l 441 703 q 533 500 489 608 q 667 701 582 592 l 896 994 l 1052 994 l 586 374 l 510 0 l 380 0 "},"E":{"x_min":61.140625,"x_max":968.328125,"ha":908,"o":"m 61 0 l 265 993 l 968 993 l 945 880 l 372 880 l 308 571 l 866 571 l 843 458 l 285 458 l 214 113 l 828 113 l 804 0 l 61 0 "},"y":{"x_min":3,"x_max":763.296875,"ha":681,"o":"m 3 -277 l 3 -162 q 79 -173 44 -173 q 138 -156 115 -173 q 202 -72 167 -133 l 240 -1 l 123 720 l 241 720 l 294 356 q 322 140 310 248 l 637 720 l 763 720 l 315 -95 q 200 -253 250 -214 q 84 -292 149 -292 q 3 -277 42 -292 "},"ⱥ":{"x_min":-47.671875,"x_max":823.96875,"ha":758,"o":"m 823 994 l 637 688 q 716 549 716 636 q 700 415 716 491 l 660 236 q 642 97 642 152 q 656 0 642 63 l 535 0 q 523 89 523 35 q 277 -16 400 -16 q 213 -8 244 -16 l 50 -277 l -47 -277 l 138 27 q 120 42 128 34 q 60 192 60 101 q 158 374 60 311 q 267 416 201 402 q 379 423 300 423 l 504 629 q 444 636 476 636 q 251 504 296 636 l 129 515 q 450 736 206 736 q 560 722 512 736 l 726 994 l 823 994 m 598 535 q 578 591 598 568 l 481 431 q 583 451 549 437 q 598 535 598 501 m 565 364 q 424 338 522 347 l 269 83 q 314 78 289 78 q 430 112 375 78 q 516 200 485 145 q 565 364 547 258 m 319 326 q 266 314 286 320 q 180 196 180 284 q 199 129 180 157 l 319 326 "},"\"":{"x_min":188,"x_max":583.46875,"ha":483,"o":"m 188 642 l 188 827 l 226 994 l 363 994 l 328 827 l 258 642 l 188 642 m 408 642 l 408 827 l 446 994 l 583 994 l 548 827 l 478 642 l 408 642 "},"ⱨ":{"x_min":45.046875,"x_max":720,"ha":757,"o":"m 720 564 q 698 424 720 528 l 632 100 l 710 100 l 647 -204 l 548 -204 l 591 0 l 491 0 l 580 435 q 600 555 600 529 q 506 635 600 635 q 381 599 439 635 q 290 504 323 564 q 228 308 255 442 l 165 0 l 45 0 l 248 994 l 368 994 l 290 611 q 535 736 416 736 q 667 693 618 736 q 720 564 720 647 "},"g":{"x_min":35,"x_max":768.109375,"ha":757,"o":"m 38 -65 l 159 -76 q 170 -139 159 -118 q 206 -172 181 -160 q 290 -187 238 -187 q 447 -129 399 -187 q 504 38 478 -90 l 516 96 q 317 0 422 0 q 138 80 210 0 q 66 307 66 160 q 122 530 66 429 q 258 684 179 632 q 419 736 336 736 q 633 601 558 736 l 657 720 l 768 720 l 625 25 q 564 -153 602 -89 q 459 -252 526 -217 q 303 -288 391 -288 q 156 -265 218 -288 q 65 -200 95 -243 q 35 -101 35 -157 q 38 -65 35 -84 m 188 318 q 201 207 188 244 q 258 127 221 154 q 341 100 295 100 q 458 142 400 100 q 553 273 517 184 q 590 443 590 362 q 541 584 590 531 q 422 637 493 637 q 337 612 378 637 q 260 539 295 588 q 206 422 224 490 q 188 318 188 353 "},"ⱴ":{"x_min":71.53125,"x_max":761.671875,"ha":681,"o":"m 761 719 l 357 0 l 223 0 l 161 373 l 88 348 l 71 441 l 144 466 l 138 517 q 136 543 136 532 q 184 684 136 632 q 318 736 232 736 q 407 701 372 736 q 442 615 442 666 q 271 410 442 470 l 310 110 l 634 719 l 761 719 m 338 588 q 300 632 338 632 q 251 566 251 632 q 252 550 251 560 l 259 503 q 338 588 338 533 "},"e":{"x_min":70,"x_max":723,"ha":756,"o":"m 562 244 l 679 232 q 563 63 654 143 q 347 -16 473 -16 q 203 20 269 -16 q 104 128 138 57 q 70 288 70 198 q 123 517 70 406 q 261 682 176 628 q 445 736 347 736 q 647 655 572 736 q 723 437 723 575 q 713 329 723 384 l 194 329 q 192 291 192 308 q 237 137 192 190 q 348 84 282 84 q 469 125 410 84 q 562 244 529 166 m 213 423 l 609 423 q 609 450 609 441 q 564 590 609 541 q 448 640 519 640 q 308 585 371 640 q 213 423 244 531 "},"J":{"x_min":45,"x_max":728.59375,"ha":680,"o":"m 54 293 l 175 293 q 165 213 165 240 q 198 125 165 158 q 291 93 232 93 q 368 112 335 93 q 421 175 400 132 q 454 289 437 206 l 598 993 l 728 993 l 580 267 q 476 48 549 114 q 289 -17 403 -17 q 106 40 168 -17 q 45 202 45 98 q 54 293 45 248 "},"|":{"x_min":125,"x_max":229,"ha":353,"o":"m 125 -292 l 125 1011 l 229 1011 l 229 -292 l 125 -292 "},"ⱬ":{"x_min":26.578125,"x_max":697.171875,"ha":681,"o":"m 697 720 l 681 643 l 201 104 q 338 104 285 104 l 620 104 l 556 -204 l 457 -204 l 500 0 l 26 0 l 45 94 l 515 626 q 392 618 451 618 l 130 618 l 151 720 l 697 720 "},"Ᵽ":{"x_min":58.03125,"x_max":949,"ha":907,"o":"m 949 749 q 862 518 949 613 q 703 425 798 447 q 514 403 609 403 l 270 403 l 188 0 l 58 0 l 191 652 l 102 652 l 121 741 l 210 741 l 262 993 l 668 993 q 809 975 761 993 q 914 883 875 951 q 949 749 949 823 m 821 745 q 749 870 821 840 q 619 885 716 885 l 369 885 l 340 741 l 579 741 l 560 652 l 321 652 l 293 516 l 508 516 q 664 533 608 516 q 785 626 742 558 q 821 745 821 682 "},"^":{"x_min":95.703125,"x_max":662.609375,"ha":639,"o":"m 218 468 l 95 468 l 330 1011 l 426 1011 l 662 468 l 542 468 l 378 872 l 218 468 "},"q":{"x_min":70,"x_max":751.453125,"ha":757,"o":"m 500 81 q 303 -16 398 -16 q 137 60 205 -16 q 70 276 70 136 q 121 519 70 410 q 252 681 172 627 q 417 736 332 736 q 535 699 482 736 q 620 587 587 662 l 647 720 l 751 720 l 548 -275 l 427 -275 l 500 81 m 188 292 q 232 135 188 186 q 339 84 275 84 q 449 130 394 84 q 540 268 504 176 q 576 446 576 360 q 531 584 576 534 q 422 635 487 635 q 312 592 359 635 q 215 436 250 538 q 188 292 188 357 "},"b":{"x_min":45.546875,"x_max":728,"ha":757,"o":"m 45 0 l 248 993 l 369 993 l 296 638 q 400 713 353 691 q 497 736 446 736 q 661 660 595 736 q 728 441 728 585 q 701 267 728 346 q 635 134 674 187 q 554 48 596 80 q 469 0 512 15 q 384 -16 425 -16 q 262 21 315 -16 q 179 136 209 58 l 151 0 l 45 0 m 223 295 l 223 272 q 266 132 223 180 q 373 84 309 84 q 489 129 436 84 q 576 269 542 174 q 610 445 610 365 q 567 586 610 536 q 461 637 524 637 q 341 585 395 637 q 250 428 286 534 q 223 295 223 348 "},"D":{"x_min":60.75,"x_max":969,"ha":983,"o":"m 60 0 l 264 993 l 557 993 q 719 977 663 993 q 855 902 798 956 q 940 768 911 848 q 969 587 969 687 q 933 368 969 467 q 840 195 897 270 q 720 78 782 120 q 571 15 657 35 q 411 0 506 0 l 60 0 m 214 113 l 368 113 q 553 132 472 113 q 640 168 604 144 q 726 249 687 198 q 806 400 776 315 q 837 593 837 485 q 795 778 837 714 q 690 864 754 843 q 543 880 643 880 l 371 880 l 214 113 "},"ⱪ":{"x_min":46.515625,"x_max":753.65625,"ha":681,"o":"m 753 720 l 452 451 l 594 100 l 656 100 l 593 -204 l 495 -204 l 537 0 l 503 0 l 362 369 l 216 240 l 166 0 l 46 0 l 250 994 l 370 994 l 243 377 l 594 720 l 753 720 "},"￼":{"x_min":0,"x_max":1361,"ha":1361,"o":"m 1361 778 l 1295 778 l 1295 930 l 1146 930 l 1146 998 l 1361 998 l 1361 778 m 979 930 l 764 930 l 764 998 l 979 998 l 979 930 m 1361 390 l 1295 390 l 1295 609 l 1361 609 l 1361 390 m 1184 414 q 1044 251 1184 251 q 952 281 987 251 l 1000 334 q 1043 317 1017 317 q 1107 411 1107 317 l 1107 738 l 1184 738 l 1184 414 m 597 930 l 382 930 l 382 998 l 597 998 l 597 930 m 1361 0 l 1146 0 l 1146 68 l 1295 68 l 1295 219 l 1361 219 l 1361 0 m 946 400 q 763 259 946 259 l 604 259 l 604 739 l 760 739 q 926 612 926 739 q 867 514 926 551 q 946 400 946 483 m 214 930 l 66 930 l 66 778 l 0 778 l 0 998 l 214 998 l 214 930 m 979 0 l 764 0 l 764 68 l 979 68 l 979 0 m 568 498 q 513 316 568 381 q 357 251 458 251 q 201 316 255 251 q 148 498 148 381 q 201 681 148 616 q 357 747 255 747 q 513 681 458 747 q 568 498 568 616 m 66 390 l 0 390 l 0 609 l 66 609 l 66 390 m 597 0 l 382 0 l 382 68 l 597 68 l 597 0 m 214 0 l 0 0 l 0 219 l 66 219 l 66 68 l 214 68 l 214 0 m 849 605 q 740 673 849 673 l 681 673 l 681 541 l 748 541 q 849 605 849 541 m 869 400 q 755 475 869 475 l 681 475 l 681 325 l 763 325 q 869 400 869 325 m 491 498 q 357 681 491 681 q 225 498 225 681 q 357 317 225 317 q 491 498 491 317 "},"z":{"x_min":26.578125,"x_max":697.171875,"ha":681,"o":"m 26 0 l 45 94 l 425 531 q 515 626 465 577 q 392 618 430 618 l 130 618 l 151 720 l 697 720 l 681 643 l 298 203 q 201 104 265 166 q 338 104 301 104 l 616 104 l 594 0 l 26 0 "},"ⱶ":{"x_min":41.875,"x_max":575.546875,"ha":597,"o":"m 575 420 l 554 322 l 228 322 l 160 0 l 41 0 l 192 720 l 311 720 l 247 420 l 575 420 "},"w":{"x_min":105.484375,"x_max":1057.4375,"ha":983,"o":"m 179 0 l 105 720 l 221 720 l 261 396 l 261 214 q 261 132 261 194 q 303 238 289 202 q 348 344 317 275 l 516 720 l 662 720 l 662 360 q 662 141 662 277 q 785 393 710 231 l 937 720 l 1057 720 l 712 0 l 572 0 l 572 422 q 572 575 572 461 q 492 418 529 503 l 305 0 l 179 0 "},"$":{"x_min":72,"x_max":779.140625,"ha":757,"o":"m 300 -9 q 138 91 204 11 q 72 290 72 172 l 193 290 q 229 161 193 212 q 321 91 265 111 l 398 466 q 284 530 320 501 q 209 624 235 570 q 184 735 184 678 q 269 924 184 842 q 482 1007 355 1007 q 509 1007 486 1007 l 520 1060 l 586 1060 l 574 998 q 716 913 664 975 q 779 750 767 851 l 664 750 q 629 843 655 807 q 553 896 603 879 l 483 555 q 667 433 617 499 q 718 285 718 366 q 673 131 718 208 q 554 17 628 53 q 383 -18 480 -18 q 365 -18 377 -18 l 341 -133 l 275 -133 l 300 -9 m 422 583 l 489 909 q 393 888 438 909 q 325 828 349 867 q 302 743 302 789 q 327 654 302 691 q 422 583 352 617 m 459 439 l 385 78 q 536 135 475 78 q 598 273 598 193 q 570 364 598 325 q 459 439 542 402 "},"\\":{"x_min":115.640625,"x_max":372.171875,"ha":378,"o":"m 279 -16 l 115 1011 l 208 1011 l 372 -16 l 279 -16 "},"~":{"x_min":109,"x_max":789,"ha":795,"o":"m 109 377 l 109 516 q 293 598 179 598 q 377 586 333 598 q 502 538 421 574 q 571 513 548 519 q 617 507 594 507 q 706 533 660 507 q 789 600 753 559 l 789 456 q 702 397 746 415 q 604 379 659 379 q 528 388 565 379 q 413 434 492 398 q 282 470 335 470 q 202 451 239 470 q 109 377 164 432 "},"-":{"x_min":63.140625,"x_max":455.25,"ha":453,"o":"m 63 298 l 88 421 l 455 421 l 430 298 l 63 298 "},"Q":{"x_min":126,"x_max":1053,"ha":1059,"o":"m 822 80 q 955 -34 871 20 l 897 -113 q 738 29 809 -54 q 550 -18 639 -18 q 392 9 478 -18 q 249 93 307 37 q 158 238 191 150 q 126 434 126 327 q 174 682 126 563 q 279 850 215 779 q 421 960 344 921 q 641 1011 523 1011 q 938 889 823 1011 q 1053 565 1053 768 q 991 289 1053 415 q 822 80 930 162 m 742 165 q 873 340 823 229 q 923 573 923 452 q 841 812 923 723 q 643 901 760 901 q 453 842 545 901 q 308 670 362 783 q 254 423 254 557 q 356 164 254 255 q 527 93 436 93 q 657 116 599 93 q 533 206 596 172 l 580 289 q 658 243 623 270 q 742 165 693 217 "},"M":{"x_min":60.234375,"x_max":1187.34375,"ha":1134,"o":"m 60 0 l 263 994 l 423 994 l 524 349 q 544 106 544 223 q 682 378 587 206 l 1024 994 l 1187 994 l 983 0 l 855 0 l 957 483 q 1058 859 992 650 q 954 650 1016 762 l 591 0 l 466 0 l 365 637 q 352 841 352 724 q 316 633 332 710 l 187 0 l 60 0 "},"C":{"x_min":124,"x_max":995.03125,"ha":984,"o":"m 821 349 l 950 331 q 772 71 889 159 q 509 -17 655 -17 q 228 93 332 -17 q 124 410 124 204 q 282 854 124 678 q 632 1011 423 1011 q 883 926 787 1011 q 995 698 979 841 l 873 686 q 793 847 854 794 q 638 901 733 901 q 349 739 460 901 q 254 407 254 599 q 327 173 254 254 q 519 93 401 93 q 702 160 620 93 q 821 349 784 227 "},"[":{"x_min":8.640625,"x_max":532.34375,"ha":378,"o":"m 8 -272 l 264 993 l 532 993 l 513 899 l 367 899 l 146 -178 l 293 -178 l 274 -272 l 8 -272 "},"Ⱨ":{"x_min":57.15625,"x_max":1028.8125,"ha":983,"o":"m 1028 993 l 846 117 l 935 117 l 852 -276 l 738 -276 l 796 0 l 692 0 l 790 468 l 283 468 l 186 0 l 57 0 l 264 993 l 393 993 l 308 585 l 814 585 l 899 993 l 1028 993 "},"L":{"x_min":54.5,"x_max":713.78125,"ha":757,"o":"m 54 0 l 257 994 l 388 994 l 208 113 l 713 113 l 690 0 l 54 0 "},"꜡":{"x_min":-190,"x_max":246.21875,"ha":0,"o":"m 246 0 l -190 0 l -190 234 l -112 234 l -112 79 l 9 79 l 9 234 l 87 234 l 87 79 l 246 79 l 246 0 "},"!":{"x_min":76.4375,"x_max":413.390625,"ha":378,"o":"m 152 251 l 225 790 l 267 994 l 413 994 l 368 773 l 227 251 l 152 251 m 76 0 l 105 139 l 240 139 l 212 0 l 76 0 "},"Ɫ":{"x_min":-11.96875,"x_max":713.78125,"ha":757,"o":"m 713 113 l 690 0 l 54 0 l 153 481 q 140 484 145 484 q 76 420 88 484 l -11 420 q 45 528 0 484 q 154 574 91 574 q 171 572 161 574 l 257 993 l 388 993 l 291 521 q 317 517 305 517 q 378 575 358 517 l 465 575 q 302 421 429 421 q 271 425 287 421 l 208 113 l 713 113 "}," ":{"x_min":0,"x_max":0,"ha":378},"{":{"x_min":70.828125,"x_max":606.015625,"ha":454,"o":"m 94 416 q 183 442 145 416 q 245 523 221 469 q 288 677 263 564 q 325 830 312 790 q 368 921 343 886 q 421 975 393 956 q 491 1004 450 994 q 568 1010 514 1010 l 606 1010 l 583 904 l 562 904 q 481 890 506 904 q 443 846 456 876 q 407 715 429 816 q 356 521 380 581 q 296 425 332 462 q 193 359 259 388 q 264 298 241 337 q 287 197 287 260 q 257 4 287 144 q 236 -120 236 -95 q 245 -161 236 -146 q 271 -179 253 -173 q 351 -186 289 -186 l 328 -292 l 292 -292 q 204 -283 229 -292 q 143 -237 165 -269 q 122 -152 122 -205 q 152 41 122 -106 q 176 192 176 153 q 149 275 176 247 q 70 304 122 304 l 94 416 "},"X":{"x_min":-43.203125,"x_max":1046.75,"ha":908,"o":"m -43 0 l 422 502 l 146 994 l 289 994 l 415 768 q 472 665 465 680 q 510 585 489 631 q 662 764 559 653 l 876 994 l 1046 994 l 575 480 l 842 0 l 701 0 l 542 290 q 489 400 519 333 q 401 295 453 351 l 129 0 l -43 0 "},"P":{"x_min":58.03125,"x_max":949,"ha":907,"o":"m 58 0 l 262 993 l 668 993 q 827 968 774 993 q 914 883 879 943 q 949 749 949 823 q 924 623 949 687 q 862 518 899 560 q 786 456 824 477 q 703 425 747 435 q 514 403 610 403 l 270 403 l 188 0 l 58 0 m 293 516 l 508 516 q 692 543 633 516 q 785 626 750 570 q 821 745 821 682 q 802 825 821 794 q 749 870 783 855 q 619 885 716 885 l 369 885 l 293 516 "},"%":{"x_min":132,"x_max":1160,"ha":1210,"o":"m 189 -37 l 994 1010 l 1103 1010 l 301 -37 l 189 -37 m 132 687 q 144 772 132 715 q 180 875 156 830 q 233 948 204 921 q 297 988 262 975 q 375 1001 332 1001 q 517 952 469 1001 q 566 810 566 904 q 533 646 566 732 q 445 519 501 559 q 310 479 389 479 q 177 529 223 479 q 132 687 132 579 m 234 665 q 254 584 234 608 q 311 561 275 561 q 387 593 353 561 q 441 699 421 626 q 461 824 461 772 q 438 894 461 870 q 379 919 415 919 q 307 887 340 919 q 254 787 275 856 q 234 665 234 719 m 726 171 q 738 257 726 199 q 774 360 750 315 q 827 433 798 405 q 891 473 856 460 q 969 486 926 486 q 1111 437 1063 486 q 1160 295 1160 389 q 1127 130 1160 217 q 1039 3 1095 43 q 904 -37 983 -37 q 771 13 817 -37 q 726 171 726 63 m 828 148 q 848 68 828 92 q 905 44 869 44 q 981 76 947 44 q 1035 182 1015 109 q 1055 308 1055 255 q 1032 379 1055 355 q 973 404 1009 404 q 901 372 934 404 q 848 272 869 340 q 828 148 828 203 "},"#":{"x_min":63,"x_max":789,"ha":757,"o":"m 117 -16 l 175 272 l 63 272 l 63 373 l 195 373 l 244 619 l 63 619 l 63 720 l 264 720 l 322 1010 l 422 1010 l 364 720 l 573 720 l 631 1010 l 731 1010 l 673 720 l 789 720 l 789 619 l 654 619 l 604 373 l 789 373 l 789 272 l 584 272 l 526 -16 l 426 -16 l 483 272 l 275 272 l 217 -16 l 117 -16 m 295 373 l 503 373 l 553 619 l 344 619 l 295 373 "},"_":{"x_min":-86,"x_max":707,"ha":758,"o":"m -86 -276 l -86 -188 l 707 -188 l 707 -276 l -86 -276 "},"Ⱡ":{"x_min":22.59375,"x_max":713.78125,"ha":757,"o":"m 713 113 l 690 0 l 54 0 l 128 361 l 22 361 l 41 452 l 146 452 l 165 542 l 59 542 l 77 633 l 184 633 l 257 993 l 388 993 l 314 633 l 581 633 l 562 542 l 295 542 l 277 452 l 544 452 l 526 361 l 258 361 l 208 113 l 713 113 "},"+":{"x_min":122,"x_max":765,"ha":794,"o":"m 387 161 l 387 433 l 122 433 l 122 547 l 387 547 l 387 818 l 500 818 l 500 547 l 765 547 l 765 433 l 500 433 l 500 161 l 387 161 "},"Ⱪ":{"x_min":60.484375,"x_max":1008.875,"ha":908,"o":"m 1008 993 l 556 588 l 822 117 l 913 117 l 831 -276 l 717 -276 l 774 0 l 742 0 l 461 503 l 257 322 l 190 0 l 60 0 l 263 993 l 394 993 l 296 514 l 825 993 l 1008 993 "},")":{"x_min":-71.96875,"x_max":375,"ha":453,"o":"m 270 1011 q 375 532 375 777 q 332 226 375 367 q 204 -53 290 85 q 21 -292 146 -145 l -71 -292 q 92 -52 5 -206 q 218 249 179 101 q 257 547 257 397 q 180 1011 257 771 l 270 1011 "},"'":{"x_min":177,"x_max":352.453125,"ha":260,"o":"m 177 642 l 177 827 l 215 994 l 352 994 l 317 827 l 247 642 l 177 642 "},"}":{"x_min":-114.015625,"x_max":421.1875,"ha":455,"o":"m 421 416 l 397 304 q 309 277 347 304 q 249 203 270 250 q 203 41 228 155 q 167 -109 179 -71 q 123 -202 149 -167 q 69 -257 98 -237 q 0 -286 40 -276 q -76 -292 -22 -292 l -114 -292 l -91 -186 l -70 -186 q 10 -171 -14 -186 q 50 -123 35 -157 q 83 4 62 -98 q 129 181 110 132 q 196 293 155 251 q 298 359 236 335 q 225 423 246 387 q 205 522 205 458 q 234 715 205 575 q 256 839 256 813 q 237 889 256 874 q 161 904 219 904 l 140 904 l 163 1010 l 199 1010 q 287 1001 262 1010 q 348 955 326 987 q 370 870 370 924 q 348 720 370 826 q 316 526 316 564 q 342 443 316 471 q 421 416 369 416 "},"a":{"x_min":60,"x_max":716.96875,"ha":758,"o":"m 523 89 q 400 9 458 34 q 277 -16 343 -16 q 119 43 179 -16 q 60 195 60 102 q 86 302 60 255 q 158 378 113 349 q 267 419 202 406 q 421 427 308 427 q 583 451 534 427 q 598 535 598 501 q 567 602 598 577 q 445 636 525 636 q 321 601 369 636 q 251 504 272 567 l 129 515 q 247 679 166 622 q 451 736 328 736 q 658 672 581 736 q 716 549 716 625 q 700 415 716 491 l 660 236 q 642 97 642 151 q 656 0 642 63 l 535 0 q 523 89 523 35 m 565 364 q 511 349 540 354 q 414 337 482 343 q 266 313 310 328 q 201 267 223 299 q 180 196 180 235 q 214 112 180 145 q 314 78 249 78 q 429 111 373 78 q 516 200 484 143 q 565 364 547 258 "},"T":{"x_min":169.46875,"x_max":959.6875,"ha":831,"o":"m 309 0 l 489 880 l 169 880 l 192 993 l 959 993 l 936 880 l 619 880 l 439 0 l 309 0 "},"=":{"x_min":122,"x_max":765,"ha":794,"o":"m 765 585 l 122 585 l 122 699 l 765 699 l 765 585 m 765 283 l 122 283 l 122 397 l 765 397 l 765 283 "},"N":{"x_min":66.453125,"x_max":1030.140625,"ha":983,"o":"m 66 0 l 270 994 l 396 994 l 560 621 q 679 333 636 450 q 738 150 705 265 q 783 409 756 275 l 903 994 l 1030 994 l 826 0 l 697 0 l 455 574 q 355 842 391 726 q 317 604 345 745 l 193 0 l 66 0 "},"2":{"x_min":79.421875,"x_max":765,"ha":757,"o":"m 79 0 q 130 148 98 88 q 218 262 163 208 q 428 443 272 316 q 557 556 522 519 q 629 660 607 609 q 645 735 645 694 q 597 851 645 803 q 480 899 549 899 q 361 850 412 899 q 288 695 310 802 l 170 712 q 271 920 187 844 q 479 997 354 997 q 629 961 562 997 q 731 862 697 926 q 765 731 765 799 q 695 541 765 632 q 445 317 653 484 q 313 199 356 245 q 247 113 269 153 l 683 113 l 660 0 l 79 0 "},"j":{"x_min":-164.828125,"x_max":363.546875,"ha":302,"o":"m 216 855 l 244 994 l 363 994 l 334 855 l 216 855 m -164 -270 l -143 -166 q -70 -178 -102 -178 q -8 -151 -31 -178 q 38 -7 13 -125 l 186 720 l 307 720 l 154 -29 q 88 -220 125 -169 q -50 -288 38 -288 q -164 -270 -97 -288 "},"Z":{"x_min":33.234375,"x_max":866.640625,"ha":831,"o":"m 33 0 l 45 99 l 533 693 l 634 818 q 693 888 665 856 q 607 881 632 881 l 575 881 l 537 881 l 499 881 l 171 881 l 194 994 l 866 994 l 855 889 l 332 256 q 210 108 235 138 q 247 113 239 113 l 778 113 l 755 0 l 33 0 "},"ⱷ":{"x_min":74,"x_max":871,"ha":888,"o":"m 871 449 q 817 218 871 331 q 664 42 758 98 q 397 -18 560 -18 q 143 94 225 -18 q 74 314 74 189 q 175 603 74 479 q 439 734 282 734 l 390 617 q 242 495 298 598 q 194 302 194 405 q 238 164 194 220 q 360 90 283 107 l 430 425 q 468 574 452 529 q 552 699 499 658 q 657 736 598 736 q 820 641 760 736 q 871 449 871 561 m 757 465 q 663 635 757 635 q 581 555 611 635 q 551 431 572 531 l 479 91 q 687 222 610 109 q 757 465 757 325 "},"u":{"x_min":85,"x_max":759.296875,"ha":757,"o":"m 527 130 q 267 -16 400 -16 q 135 31 185 -16 q 85 148 85 79 q 107 304 85 194 l 193 719 l 313 719 l 218 259 q 207 170 207 201 q 231 106 207 129 q 302 84 255 84 q 401 109 353 84 q 484 176 449 134 q 541 277 519 219 q 575 408 555 315 l 639 720 l 759 720 l 611 0 l 500 0 l 527 130 "},"1":{"x_min":201.375,"x_max":652.640625,"ha":757,"o":"m 327 0 l 481 750 q 201 622 382 670 l 223 733 q 401 829 313 770 q 532 932 488 888 q 582 998 558 959 l 652 998 l 448 0 l 327 0 "},"k":{"x_min":46.515625,"x_max":753.65625,"ha":681,"o":"m 46 0 l 250 994 l 370 994 l 243 377 l 594 720 l 753 720 l 452 451 l 634 0 l 503 0 l 362 369 l 216 240 l 166 0 l 46 0 "},"Ⱶ":{"x_min":57.15625,"x_max":811.484375,"ha":819,"o":"m 811 581 l 788 468 l 283 468 l 187 0 l 57 0 l 261 993 l 390 993 l 306 581 l 811 581 "},"<":{"x_min":122,"x_max":767,"ha":794,"o":"m 122 434 l 122 548 l 767 826 l 767 704 l 255 490 l 767 274 l 767 153 l 122 434 "},"t":{"x_min":76,"x_max":436.609375,"ha":377,"o":"m 325 100 l 305 0 q 222 -12 262 -12 q 107 24 150 -12 q 76 98 76 51 q 93 207 76 121 l 178 625 l 83 625 l 103 720 l 198 720 l 234 896 l 372 981 l 318 720 l 436 720 l 416 625 l 299 625 l 217 227 q 202 136 202 151 q 214 103 202 115 q 254 92 226 92 q 325 100 294 92 "},"W":{"x_min":200,"x_max":1444.984375,"ha":1285,"o":"m 200 0 l 200 994 l 318 994 l 318 502 q 318 311 318 467 q 318 250 318 267 q 318 183 318 238 q 449 421 413 352 l 746 994 l 900 994 l 900 412 q 900 172 900 313 q 962 275 931 207 q 1034 433 1010 386 l 1312 994 l 1444 994 l 949 0 l 790 0 l 790 602 q 790 791 790 679 q 702 645 729 697 l 364 0 l 200 0 "},"꜠":{"x_min":-53,"x_max":383.21875,"ha":0,"o":"m 383 914 l 224 914 l 224 758 l 146 758 l 146 914 l 25 914 l 25 758 l -53 758 l -53 993 l 383 993 l 383 914 "},"v":{"x_min":107.671875,"x_max":760.96875,"ha":681,"o":"m 223 0 l 107 720 l 224 720 l 285 323 q 309 111 295 258 q 398 286 344 187 l 634 720 l 760 720 l 356 0 l 223 0 "},">":{"x_min":122,"x_max":767,"ha":794,"o":"m 767 434 l 122 153 l 122 274 l 632 490 l 122 704 l 122 826 l 767 548 l 767 434 "},"s":{"x_min":54,"x_max":682,"ha":681,"o":"m 54 250 l 177 250 q 192 163 177 201 q 251 102 208 126 q 351 78 294 78 q 471 111 431 78 q 511 188 511 144 q 487 248 511 220 q 367 318 462 277 q 245 377 271 360 q 178 442 200 404 q 156 528 156 479 q 222 675 156 614 q 409 736 289 736 q 612 672 542 736 q 682 504 682 608 l 564 504 q 521 603 564 565 q 400 641 478 641 q 302 611 337 641 q 268 548 268 582 q 297 489 268 514 q 400 435 317 471 q 574 339 539 374 q 632 202 632 282 q 599 97 632 148 q 501 14 567 45 q 346 -16 436 -16 q 139 46 224 -16 q 54 250 54 109 "},"B":{"x_min":58.765625,"x_max":891,"ha":908,"o":"m 58 0 l 262 993 l 564 993 q 686 986 647 993 q 796 945 752 974 q 866 867 841 917 q 891 757 891 817 q 846 613 891 675 q 711 518 802 550 q 829 438 790 491 q 869 314 869 385 q 822 157 869 232 q 700 40 776 81 q 530 0 624 0 l 58 0 m 306 569 l 503 569 q 706 615 644 569 q 769 749 769 661 q 749 821 769 791 q 698 866 730 852 q 577 880 666 880 l 369 880 l 306 569 m 212 113 l 434 113 q 553 119 522 113 q 653 155 615 129 q 714 224 692 182 q 736 313 736 267 q 693 419 736 383 q 529 456 650 456 l 282 456 l 212 113 "},"?":{"x_min":172.796875,"x_max":762.96875,"ha":757,"o":"m 285 248 q 312 357 291 310 q 376 455 332 405 q 495 561 401 484 q 616 687 588 639 q 644 775 644 735 q 599 870 644 829 q 485 912 555 912 q 359 863 410 912 q 293 701 309 815 l 172 721 q 283 938 201 866 q 482 1010 365 1010 q 629 976 562 1010 q 729 886 695 943 q 762 766 762 828 q 713 623 762 691 q 549 468 677 571 q 435 355 462 396 q 398 248 409 314 l 285 248 m 225 0 l 254 139 l 390 139 l 362 0 l 225 0 "},"H":{"x_min":57.15625,"x_max":1026.15625,"ha":983,"o":"m 57 0 l 261 993 l 390 993 l 306 581 l 811 581 l 895 993 l 1026 993 l 822 0 l 692 0 l 788 468 l 283 468 l 187 0 l 57 0 "},"c":{"x_min":76,"x_max":694.96875,"ha":680,"o":"m 532 262 l 652 249 q 523 49 607 114 q 333 -16 440 -16 q 147 59 218 -16 q 76 271 76 135 q 121 503 76 389 q 253 676 167 617 q 448 736 338 736 q 628 669 562 736 q 694 494 694 603 l 576 494 q 537 596 576 558 q 437 635 499 635 q 311 588 364 635 q 228 446 258 541 q 198 263 198 351 q 237 124 198 171 q 336 78 277 78 q 448 124 394 78 q 532 262 501 169 "},"&":{"x_min":107,"x_max":886.28125,"ha":908,"o":"m 674 96 q 532 2 591 27 q 401 -22 473 -22 q 188 57 269 -22 q 107 257 107 137 q 137 396 107 336 q 227 505 167 457 q 363 583 273 542 q 321 688 328 661 q 312 769 312 726 q 343 885 312 826 q 431 976 374 943 q 555 1010 488 1010 q 706 954 649 1010 q 764 819 764 898 q 714 686 764 752 q 521 546 665 620 q 688 282 608 385 q 781 424 737 343 l 886 369 q 764 184 842 275 q 876 49 807 128 l 786 -24 q 674 96 718 34 m 478 638 q 616 742 575 688 q 646 817 646 779 q 619 884 646 857 q 554 912 592 912 q 472 873 507 912 q 437 782 437 835 q 478 638 437 718 m 605 190 q 412 488 481 356 q 283 404 321 444 q 229 271 229 347 q 280 141 229 194 q 406 88 331 88 q 605 190 506 88 "},"I":{"x_min":77.765625,"x_max":411.390625,"ha":378,"o":"m 77 0 l 281 994 l 411 994 l 208 0 l 77 0 "},"G":{"x_min":132,"x_max":1042.25,"ha":1058,"o":"m 557 391 l 580 504 l 1007 504 l 923 99 q 740 15 843 48 q 537 -17 637 -17 q 220 113 325 -17 q 132 397 132 224 q 209 723 132 576 q 404 939 286 869 q 666 1010 522 1010 q 852 971 770 1010 q 979 869 935 933 q 1042 702 1022 805 l 914 688 q 829 845 894 790 q 662 900 764 900 q 465 841 557 900 q 318 664 373 782 q 264 395 264 546 q 336 169 264 246 q 536 93 408 93 q 809 178 663 93 l 853 391 l 557 391 "},"(":{"x_min":115,"x_max":562.640625,"ha":454,"o":"m 219 -292 q 115 187 115 -58 q 157 492 115 351 q 285 772 199 634 q 468 1011 343 864 l 562 1011 q 398 772 484 926 q 272 470 311 618 q 233 171 233 321 q 309 -292 233 -52 l 219 -292 "},"`":{"x_min":198.046875,"x_max":421.359375,"ha":453,"o":"m 327 807 l 198 993 l 344 993 l 421 807 l 327 807 "},"U":{"x_min":132,"x_max":1026.953125,"ha":983,"o":"m 269 992 l 400 992 l 275 382 q 260 269 260 306 q 321 140 260 189 q 477 92 383 92 q 615 126 551 92 q 717 229 680 161 q 784 445 754 297 l 896 993 l 1026 993 l 908 410 q 827 174 877 261 q 689 34 777 87 q 484 -18 601 -18 q 293 19 373 -18 q 172 122 212 56 q 132 271 132 187 q 159 450 132 323 l 269 992 "},"F":{"x_min":61.8125,"x_max":898.546875,"ha":831,"o":"m 61 0 l 265 994 l 898 994 l 875 881 l 372 881 l 307 564 l 820 564 l 796 451 l 284 451 l 192 0 l 61 0 "},"r":{"x_min":45.1875,"x_max":570.890625,"ha":453,"o":"m 45 0 l 192 720 l 299 720 l 269 572 q 375 696 323 656 q 482 736 428 736 q 570 709 518 736 l 521 595 q 453 619 490 619 q 323 547 390 619 q 219 288 257 475 l 159 0 l 45 0 "},":":{"x_min":77.765625,"x_max":360.875,"ha":378,"o":"m 196 581 l 225 720 l 360 720 l 332 581 l 196 581 m 77 0 l 106 139 l 242 139 l 213 0 l 77 0 "},"x":{"x_min":-2,"x_max":731.734375,"ha":681,"o":"m -2 0 l 305 365 l 128 720 l 261 720 l 321 591 q 381 454 354 520 l 584 720 l 731 720 l 435 355 l 613 0 l 480 0 l 410 146 q 358 262 387 193 l 148 0 l -2 0 "},"*":{"x_min":157.1875,"x_max":596.46875,"ha":530,"o":"m 157 810 l 187 906 q 341 841 293 869 q 328 1010 328 963 l 423 1010 q 409 841 423 942 q 565 906 477 877 l 596 810 q 430 772 512 782 q 545 644 471 736 l 465 587 q 374 732 426 640 q 288 587 325 637 l 209 644 q 320 772 286 741 q 157 810 234 789 "},"ⱦ":{"x_min":-134.015625,"x_max":723.3125,"ha":378,"o":"m 723 994 l 203 124 q 254 92 210 92 q 325 100 294 92 l 305 0 q 222 -12 262 -12 q 133 7 169 -12 l -36 -277 l -134 -277 l 77 77 q 76 98 76 89 q 93 207 76 123 l 179 625 l 83 625 l 103 720 l 198 720 l 234 897 l 372 981 l 318 720 l 462 720 l 625 994 l 723 994 m 404 625 l 299 625 l 244 364 l 250 364 l 404 625 "},"V":{"x_min":168.8125,"x_max":1030.140625,"ha":908,"o":"m 356 0 l 168 994 l 294 994 l 407 401 q 447 141 438 240 q 548 343 509 268 l 895 994 l 1030 994 l 495 0 l 356 0 "},"h":{"x_min":45.046875,"x_max":720,"ha":757,"o":"m 45 0 l 248 994 l 368 994 l 290 611 q 415 707 358 678 q 535 736 473 736 q 671 688 622 736 q 720 564 720 641 q 698 424 720 526 l 611 0 l 491 0 l 580 435 q 600 555 600 530 q 576 612 600 590 q 506 635 552 635 q 382 600 441 635 q 289 504 323 565 q 228 309 256 443 l 165 0 l 45 0 "},"⸗":{"x_min":11.96875,"x_max":489.8125,"ha":453,"o":"m 489 624 l 464 502 l 63 339 l 88 462 l 489 624 m 438 379 l 413 256 l 11 94 l 37 216 l 438 379 "},"0":{"x_min":96,"x_max":769,"ha":756,"o":"m 96 325 q 132 581 96 451 q 214 789 169 711 q 308 911 260 867 q 403 976 357 955 q 507 997 450 997 q 694 912 619 997 q 769 667 769 827 q 717 342 769 503 q 547 55 656 150 q 356 -17 463 -17 q 171 70 246 -17 q 96 325 96 158 m 212 294 q 241 152 212 203 q 362 81 282 81 q 489 145 432 81 q 613 411 571 236 q 655 697 655 586 q 614 851 655 804 q 508 899 574 899 q 419 873 460 899 q 339 787 377 848 q 245 530 285 701 q 212 294 212 384 "},".":{"x_min":78.421875,"x_max":243.25,"ha":378,"o":"m 78 0 l 107 139 l 243 139 l 214 0 l 78 0 "},"@":{"x_min":74,"x_max":1332.5625,"ha":1382,"o":"m 771 110 q 675 28 728 59 q 567 -2 621 -2 q 452 33 508 -2 q 361 141 396 68 q 327 302 327 214 q 381 518 327 410 q 515 680 435 626 q 672 735 596 735 q 782 703 730 735 q 873 610 835 672 l 895 714 l 1014 714 l 918 260 q 899 154 899 164 q 912 123 899 136 q 945 110 926 110 q 1037 151 980 110 q 1157 296 1113 205 q 1202 485 1202 388 q 1145 696 1202 598 q 975 854 1088 795 q 726 913 862 913 q 442 838 570 913 q 242 625 313 764 q 172 328 172 487 q 242 42 172 162 q 447 -134 313 -77 q 744 -192 581 -192 q 1036 -132 918 -192 q 1212 13 1154 -72 l 1332 13 q 1216 -132 1298 -58 q 1020 -248 1133 -205 q 746 -292 906 -292 q 474 -253 598 -292 q 262 -137 349 -214 q 129 41 174 -59 q 74 317 74 169 q 140 633 74 483 q 370 914 221 816 q 732 1012 519 1012 q 1028 943 897 1012 q 1235 738 1159 874 q 1300 483 1300 620 q 1164 133 1300 286 q 900 -3 1043 -3 q 826 11 854 -3 q 784 52 797 25 q 771 110 775 68 m 450 294 q 493 149 450 201 q 592 98 536 98 q 670 120 629 98 q 749 188 712 143 q 811 301 787 233 q 835 439 835 370 q 790 583 835 532 q 680 634 745 634 q 600 611 638 634 q 527 541 563 589 q 471 422 492 492 q 450 294 450 352 "},"f":{"x_min":61.8125,"x_max":554.953125,"ha":378,"o":"m 61 0 l 190 625 l 82 625 l 101 719 l 209 719 l 229 822 q 262 932 245 898 q 318 988 279 966 q 422 1010 356 1010 q 554 990 467 1010 l 533 883 q 430 900 471 900 q 377 882 395 900 q 345 797 358 864 l 329 719 l 463 719 l 444 625 l 310 625 l 182 0 l 61 0 "},";":{"x_min":32.5625,"x_max":356.890625,"ha":378,"o":"m 192 581 l 221 720 l 356 720 l 328 581 l 192 581 m 73 0 l 102 139 l 239 139 l 214 17 q 144 -142 192 -91 q 32 -200 97 -193 l 43 -147 q 148 0 122 -124 l 73 0 "},"i":{"x_min":40.546875,"x_max":364.203125,"ha":302,"o":"m 216 855 l 244 994 l 364 994 l 335 855 l 216 855 m 40 0 l 188 720 l 308 720 l 160 0 l 40 0 "},"6":{"x_min":114,"x_max":769,"ha":758,"o":"m 273 575 q 374 639 324 618 q 474 661 424 661 q 657 583 585 661 q 730 375 730 506 q 622 86 730 207 q 396 -17 529 -17 q 194 73 275 -17 q 114 331 114 164 q 166 641 114 481 q 265 843 206 764 q 391 960 324 923 q 541 998 457 998 q 705 934 641 998 q 769 752 769 871 l 661 741 q 616 858 652 822 q 530 895 581 895 q 421 852 476 895 q 327 725 367 809 q 273 575 288 641 m 232 279 q 283 138 232 195 q 399 81 334 81 q 494 115 444 81 q 580 221 545 150 q 616 363 616 292 q 567 508 616 454 q 448 563 518 563 q 300 483 369 563 q 232 279 232 403 "},"A":{"x_min":-26.765625,"x_max":839.875,"ha":908,"o":"m -26 0 l 525 993 l 679 993 l 839 0 l 713 0 l 666 286 l 272 286 l 116 0 l -26 0 m 328 388 l 650 388 l 612 637 q 588 884 588 785 q 488 682 552 799 l 328 388 "},"n":{"x_min":45.375,"x_max":719,"ha":758,"o":"m 45 0 l 192 720 l 301 720 l 276 594 q 408 702 347 668 q 535 736 470 736 q 670 688 621 736 q 719 561 719 641 q 701 435 719 521 l 611 0 l 491 0 l 585 456 q 599 554 599 522 q 574 612 599 590 q 504 635 550 635 q 340 567 412 635 q 234 334 268 499 l 165 0 l 45 0 "},"O":{"x_min":124,"x_max":1051,"ha":1058,"o":"m 124 415 q 274 845 124 681 q 639 1010 425 1010 q 936 889 821 1010 q 1051 564 1051 768 q 993 295 1051 419 q 884 135 950 203 q 743 31 818 68 q 532 -17 643 -17 q 319 39 415 -17 q 173 198 223 96 q 124 415 124 300 m 252 409 q 287 248 252 322 q 393 134 323 175 q 541 93 463 93 q 684 129 616 93 q 805 230 752 165 q 890 389 859 294 q 921 575 921 483 q 839 811 921 723 q 638 900 758 900 q 368 766 485 900 q 252 409 252 633 "},"3":{"x_min":78.921875,"x_max":758,"ha":757,"o":"m 78 260 l 191 275 q 250 125 204 170 q 369 81 295 81 q 523 145 458 81 q 588 294 588 210 q 539 415 588 367 q 409 463 490 463 q 370 460 399 463 l 391 562 q 424 560 408 560 q 582 611 527 560 q 638 736 638 662 q 592 852 638 805 q 481 899 547 899 q 365 851 417 899 q 299 715 314 803 l 181 740 q 293 929 210 862 q 490 997 376 997 q 683 923 609 997 q 758 741 758 849 q 717 604 758 662 q 597 507 677 545 q 682 423 654 472 q 711 312 711 375 q 612 80 711 178 q 376 -17 513 -17 q 160 58 242 -17 q 78 260 78 134 "},"]":{"x_min":-79.75,"x_max":447.9375,"ha":378,"o":"m 186 -272 l -79 -272 l -60 -178 l 86 -178 l 307 899 l 160 899 l 180 993 l 447 993 l 186 -272 "},"m":{"x_min":44.578125,"x_max":1106,"ha":1134,"o":"m 44 0 l 192 720 l 312 720 l 287 601 q 407 706 354 677 q 522 736 460 736 q 632 700 588 736 q 690 601 676 664 q 803 702 744 669 q 929 736 863 736 q 1061 693 1017 736 q 1106 573 1106 650 q 1090 463 1106 540 l 995 0 l 875 0 l 972 475 q 985 559 985 534 q 963 614 985 594 q 901 635 941 635 q 791 601 847 635 q 704 514 735 568 q 650 349 673 460 l 578 0 l 458 0 l 558 485 q 568 556 568 535 q 547 613 568 591 q 491 635 525 635 q 383 601 440 635 q 292 509 327 568 q 234 340 257 449 l 164 0 l 44 0 "},"9":{"x_min":96,"x_max":751,"ha":758,"o":"m 96 227 l 204 239 q 251 120 216 155 q 335 85 286 85 q 463 146 404 85 q 592 403 550 235 q 484 337 531 357 q 388 318 437 318 q 229 378 299 318 q 136 606 136 458 q 243 894 136 774 q 470 997 336 997 q 671 905 591 997 q 751 648 751 814 q 697 328 751 486 q 525 54 633 142 q 326 -17 437 -17 q 160 47 225 -17 q 96 227 96 111 m 252 620 q 300 471 252 527 q 417 416 349 416 q 516 450 466 416 q 600 553 565 485 q 636 695 636 622 q 612 800 636 751 q 549 874 589 849 q 467 899 508 899 q 389 877 427 899 q 317 813 350 855 q 268 717 284 771 q 252 620 252 662 "},"Ɽ":{"x_min":31,"x_max":993,"ha":982,"o":"m 993 751 q 664 446 993 491 q 744 367 718 406 q 843 187 805 281 l 917 0 l 772 0 l 702 185 q 615 358 665 284 q 539 428 580 412 q 435 441 508 441 l 284 441 l 182 -49 q 167 -139 167 -122 q 219 -184 167 -184 q 290 -175 259 -184 l 270 -276 q 177 -288 227 -288 q 78 -263 117 -288 q 31 -178 31 -234 q 48 -69 31 -153 l 267 994 l 676 994 q 832 981 781 994 q 957 895 917 960 q 993 751 993 839 m 869 754 q 799 873 869 847 q 693 885 768 885 l 375 885 l 306 549 l 486 549 q 649 552 613 549 q 843 657 789 565 q 869 754 869 702 "},"l":{"x_min":35.890625,"x_max":359.546875,"ha":302,"o":"m 35 0 l 239 994 l 359 994 l 156 0 l 35 0 "},"8":{"x_min":102,"x_max":769,"ha":758,"o":"m 307 546 q 226 624 253 576 q 199 726 199 672 q 262 893 199 816 q 493 997 347 997 q 695 926 621 997 q 769 755 769 856 q 728 624 769 682 q 603 531 688 566 q 687 452 662 494 q 720 324 720 397 q 627 86 720 190 q 380 -18 534 -18 q 179 59 257 -18 q 102 252 102 136 q 157 439 102 361 q 307 546 212 518 m 317 721 q 357 618 317 657 q 467 580 397 580 q 601 631 550 580 q 653 756 653 682 q 612 859 653 819 q 502 899 572 899 q 404 873 449 899 q 338 805 360 848 q 317 721 317 762 m 223 242 q 242 162 223 200 q 302 102 262 124 q 393 80 341 80 q 551 173 490 80 q 599 331 599 246 q 554 444 599 400 q 438 489 510 489 q 285 420 348 489 q 223 242 223 352 "},"p":{"x_min":-13.921875,"x_max":729,"ha":758,"o":"m -13 -276 l 190 719 l 301 719 l 280 619 q 391 710 342 685 q 494 736 440 736 q 662 661 595 736 q 729 446 729 586 q 692 241 729 334 q 602 93 655 149 q 494 10 549 36 q 383 -16 440 -16 q 186 115 255 -16 l 106 -276 l -13 -276 m 224 294 q 235 182 224 213 q 289 111 251 138 q 377 84 327 84 q 545 202 481 84 q 609 445 609 321 q 566 587 609 537 q 459 637 523 637 q 374 612 413 637 q 301 538 335 587 q 245 418 267 489 q 224 294 224 346 "},"4":{"x_min":61.8125,"x_max":738.375,"ha":757,"o":"m 406 0 l 459 253 l 61 253 l 87 373 l 632 992 l 731 992 l 601 361 l 738 361 l 716 253 l 579 253 l 527 0 l 406 0 m 481 361 l 566 775 l 203 361 l 481 361 "},"R":{"x_min":63.484375,"x_max":993,"ha":982,"o":"m 63 0 l 267 993 l 676 993 q 859 972 797 993 q 957 894 921 951 q 993 751 993 837 q 915 550 993 630 q 664 446 837 470 q 744 367 717 406 q 843 186 805 280 l 917 0 l 771 0 l 702 184 q 615 358 664 285 q 547 425 582 409 q 435 441 513 441 l 284 441 l 193 0 l 63 0 m 306 549 l 486 549 q 649 552 611 549 q 769 586 722 559 q 843 657 817 612 q 869 753 869 701 q 849 828 869 796 q 799 872 830 861 q 692 884 767 884 l 375 884 l 306 549 "},"o":{"x_min":66,"x_max":734.96875,"ha":757,"o":"m 66 273 q 187 622 66 483 q 451 736 288 736 q 656 654 578 736 q 734 435 734 573 q 685 204 734 311 q 545 40 636 97 q 354 -16 455 -16 q 204 19 272 -16 q 101 121 137 55 q 66 273 66 187 m 186 285 q 233 131 186 183 q 355 78 281 78 q 432 94 394 78 q 502 143 470 110 q 558 217 535 175 q 595 307 581 259 q 616 435 616 374 q 567 587 616 533 q 446 641 519 641 q 343 613 389 641 q 258 533 296 586 q 203 410 221 480 q 186 285 186 340 "},"5":{"x_min":94,"x_max":778.21875,"ha":756,"o":"m 94 284 l 216 296 q 216 264 216 270 q 238 174 216 219 q 298 105 260 129 q 379 81 336 81 q 492 120 434 81 q 586 234 550 159 q 622 383 622 309 q 573 516 622 466 q 447 567 525 567 q 347 541 394 567 q 260 468 301 515 l 155 468 l 302 980 l 778 980 l 754 867 l 384 867 l 311 614 q 396 659 352 644 q 485 675 439 675 q 669 599 597 675 q 741 394 741 524 q 691 183 741 279 q 556 34 642 86 q 371 -17 470 -17 q 222 21 287 -17 q 126 128 158 60 q 94 263 94 196 q 94 284 94 270 "}}}
